<svg width="1080" height="1080" viewBox="0 0 1080 1080" fill="none" xmlns="http://www.w3.org/2000/svg">
<path fill-rule="evenodd" clip-rule="evenodd" d="M714.849 445.812C696.048 445.812 684.049 423.139 675.944 406.945C687.291 390.75 697.018 382.653 714.849 377.794C733.649 377.794 748.89 393.021 748.89 411.803C748.89 430.585 733.649 445.812 714.849 445.812ZM733.719 411.803C733.719 422.215 725.27 430.655 714.849 430.655C712.115 430.655 708.282 429.085 703.08 422.796C699.7 418.71 696.659 413.729 693.799 408.453C696.737 404.905 699.443 402.256 702.196 400.147C705.99 397.241 710.425 394.943 716.681 393.039C726.243 393.959 733.719 402.009 733.719 411.803Z" fill="url(#paint0_linear)"/>
<path fill-rule="evenodd" clip-rule="evenodd" d="M419.073 318.087C423.336 319.002 427.047 319.798 430.131 320.452C470.812 329.072 531.713 330.422 558.937 329.971C623.067 307.436 669.256 301.474 709.476 305.704C749.098 309.871 782.088 323.899 819.108 339.641L821.131 340.501C863.467 358.499 883.908 397.357 893.821 430.861C903.78 464.519 903.78 494.882 903.78 499.25V586.828L903.778 586.951C902.392 646.448 919.26 679.369 938.041 716.023L938.075 716.089C940.301 720.433 942.553 724.83 944.806 729.33C957.445 754.585 977.084 762.332 987.18 762.332H988.331L989.457 762.579C991.638 763.058 993.82 763.513 996 763.947L970.757 780.589L970.826 780.694C970.771 780.675 970.715 780.656 970.659 780.637C940.372 801.121 877.243 824.205 794.153 778.608C752.736 755.88 707.433 751.033 667.322 754.396C630.947 757.445 599.272 767.216 579.4 776.047C579.396 776.12 579.391 776.193 579.387 776.266L579.339 776.169L557.427 787.132C563.185 703.784 557.709 617.555 553.586 580.204C543.04 525.955 536.555 502.224 527.654 485.954C523.304 478.002 518.227 471.589 511.203 464.017C507.658 460.194 503.694 456.156 499.071 451.448L499.047 451.422C494.443 446.733 489.255 441.448 483.427 435.283C477.87 429.405 467.419 422.59 453.045 415.323C438.942 408.193 422.046 401.103 404.476 394.383C379.2 384.715 353.169 376.042 332.536 369.168C324.382 366.451 317.07 364.014 310.982 361.909L310.933 361.892L310.884 361.875C289.141 354.117 247.442 345.341 208.208 338.233C169.103 331.148 133.854 325.965 125.456 325.202C115.606 324.307 107.356 319.726 101.337 315.003C95.3133 310.276 90.7864 304.833 88.2798 300.898L83 292.609L90.8675 286.715C98.0311 281.347 108.331 278.732 119.093 277.373C130.24 275.965 143.589 275.72 158.203 276.275C187.465 277.387 223.047 281.762 258.757 287.352C321.941 297.243 386.543 311.106 419.067 318.085L419.073 318.087ZM580.206 759.251C601.544 750.662 631.879 742.157 666.053 739.292C708.195 735.759 756.701 740.763 801.457 765.324C872.08 804.079 925.876 789.219 954.764 772.691C943.96 765.445 933.587 754.362 925.808 738.82C923.617 734.441 921.39 730.105 919.162 725.764L919.141 725.723C900.158 688.75 881.054 651.541 882.541 586.582V499.254C882.541 495.51 882.538 467.58 873.453 436.876C864.319 406.006 846.666 374.417 812.815 360.026L812.12 359.731C774.104 343.569 743.687 330.638 707.253 326.807C670.815 322.975 627.479 328.211 564.399 350.547L562.783 351.12L561.068 351.154C534.425 351.698 469.765 350.542 425.724 341.209C422.599 340.547 418.856 339.744 414.57 338.824C381.99 331.834 318.011 318.106 255.469 308.316C220.056 302.772 185.427 298.544 157.396 297.479C143.364 296.946 131.295 297.22 121.756 298.425C119.587 298.699 117.622 299.013 115.848 299.356C119.522 301.969 123.463 303.714 127.379 304.07C136.812 304.926 172.889 310.269 211.998 317.354C250.951 324.412 294.322 333.442 317.978 341.874C323.711 343.856 330.762 346.206 338.721 348.857C359.448 355.764 386.327 364.72 412.07 374.566C429.96 381.409 447.611 388.794 462.636 396.39C477.39 403.85 490.646 412.016 498.868 420.713C504.543 426.716 509.603 431.872 514.21 436.564L514.38 436.737L514.39 436.747L514.398 436.755C518.902 441.343 523.038 445.556 526.784 449.595C534.459 457.871 540.791 465.724 546.292 475.777C557.069 495.476 564.04 522.632 574.519 576.586L574.601 577.008L574.648 577.435C578.376 610.954 583.239 683.72 580.206 759.251Z" fill="url(#paint1_linear)"/>
<defs>
<linearGradient id="paint0_linear" x1="102.961" y1="295.704" x2="994.645" y2="775.371" gradientUnits="userSpaceOnUse">
<stop stop-color="#F08609"/>
<stop offset="1" stop-color="#C52121"/>
</linearGradient>
<linearGradient id="paint1_linear" x1="102.961" y1="295.704" x2="994.645" y2="775.371" gradientUnits="userSpaceOnUse">
<stop stop-color="#F08609"/>
<stop offset="1" stop-color="#C52121"/>
</linearGradient>
</defs>
</svg>
